v 37.14101791 25 0.6698749661
vn 0.3706990182 0.6665735841 -0.6467316747
v 66.7820282 25 17.78312302
vn 0.4549319744 0.4176802635 -0.7864986062
v 37.14101791 -3.512059266e-07 0.6698749661
vn 0.4481860995 -0.4407556951 -0.7777298093
v 66.7820282 -3.512059266e-07 17.78312302
vn 0.3727636635 -0.6709367037 -0.6410079598
v 35.01466751 -3.512059266e-07 0.01398000587
vn 0.08372947574 -0.5416784286 -0.8364053369
v 34.64101791 -3.512059266e-07 24.22649956
vn -0.01838515326 -0.7460517287 0.6656341553
v 34.2673645 -3.512059266e-07 0.01398000587
vn -0.04186468944 -0.541677773 -0.8395430446
v 33.52841187 -3.512059266e-07 0.1253592223
vn -0.1673899144 -0.5348438025 -0.8282045126
v 35.01466751 25 0.01398000587
vn 0.04186468944 0.541677773 -0.8395430446
v 34.2673645 25 0.01398000587
vn -0.08372947574 0.5416784286 -0.8364053369
v 35.75362015 -3.512059266e-07 0.1253592223
vn 0.2085331678 -0.5348435044 -0.8188139796
v 35.75362015 25 0.1253592223
vn 0.1673899144 0.5348438025 -0.8282045126
v 32.81431198 -3.512059266e-07 0.3456331789
vn -0.1764814854 -0.8565564156 -0.4849385023
v 33.52841187 25 0.1253592223
vn -0.2085331678 0.534843564 -0.8188139796
v 36.46772003 -3.512059266e-07 0.3456331789
vn 0.2004731447 -0.8565557599 -0.4755236208
v 36.46772003 25 0.3456331789
vn 0.1764814109 0.8565560579 -0.4849391878
v 32.17209625 -3.512059266e-07 24.43107796
vn 0.1116920039 -0.5815613866 0.8057985306
v 32.14101791 -3.512059266e-07 0.6698749661
vn -0.3706990182 -0.6665735841 -0.6467316747
v 32.81431198 25 0.3456331789
vn -0.2004733086 0.8565564752 -0.4755222499
v 37.10993576 -3.512059266e-07 24.43107796
vn -0.156001702 -0.5815617442 0.7984042764
v 29.77052498 -3.512059266e-07 25.03923988
vn 0.2566183805 -0.5106260777 0.8206143975
v 27.50180435 -3.512059266e-07 26.03439331
vn 0.1047830731 -0.9726952314 0.2070857435
v 2.500001907 -3.512059266e-07 17.78312302
vn -0.4549319148 -0.4176802337 -0.7864986658
v 32.14101791 25 0.6698749661
vn -0.4481860399 0.4407556355 -0.7777298689
v 43.85420609 -3.512059266e-07 27.38939095
vn -0.1470060498 -0.9728999734 0.178479284
v 41.78022766 -3.512059266e-07 26.03439331
vn -0.4407707155 -0.4722663462 0.7633385062
v 39.51150894 -3.512059266e-07 25.03923988
vn -0.3015245795 -0.5106259584 0.805198133
v 23.60515785 -3.512059266e-07 29.067276
vn 0.5854498148 -0.5768938065 0.5695981383
v 1.88255012 -3.512059266e-07 18.20409584
vn -0.3132070601 -0.8549252748 -0.4135264456
v 25.42782593 -3.512059266e-07 27.38939095
vn 0.5128259659 -0.5000756383 0.6978064775
v 2.500001907 25 17.78312302
vn -0.3727636337 0.6709367037 -0.6410079598
v 67.39948273 -3.512059266e-07 18.20409584
vn 0.5505017042 -0.5163374543 -0.6560057402
v 47.19851303 -3.512059266e-07 31.02227592
vn -0.5441104174 -0.7694843411 0.3344213963
v 45.67687607 -3.512059266e-07 29.067276
vn -0.6416273117 -0.5254850388 0.5587306023
v 67.39948273 25 18.20409584
vn 0.3132070005 0.8549249768 -0.4135271311
v 22.08351898 -3.512059266e-07 31.02227592
vn 0.5474982262 -0.7457175851 0.3796722293
v 1.334741235 -3.512059266e-07 18.71238899
vn -0.6060255766 -0.5322365165 -0.5911491513
v 1.88255012 25 18.20409584
vn -0.5505015254 0.5163372159 -0.6560060382
v 67.94728851 -3.512059266e-07 18.71238899
vn 0.6347829103 -0.532235384 -0.560157299
v 67.94728851 25 18.71238899
vn 0.6060251594 0.5322367549 -0.5911493301
v 0.8688037395 -3.512059266e-07 19.29665184
vn -0.6828059554 -0.5410594344 -0.4909487963
v 1.334741235 25 18.71238899
vn -0.6347843409 0.5322359204 -0.5601551533
v 68.4132309 -3.512059266e-07 19.29665184
vn 0.7064664364 -0.541059792 -0.4562449753
v 68.4132309 25 19.29665184
vn 0.6828043461 0.5410590768 -0.4909514189
v 0.4951549172 -3.512059266e-07 19.9438324
vn -0.7472311258 -0.5430131555 -0.3831219077
v 0.8688037395 25 19.29665184
vn -0.7064672709 0.5410595536 -0.4562440217
v 68.78688049 -3.512059266e-07 19.9438324
vn 0.7654278874 -0.5430136919 -0.3453350067
v 68.78688049 25 19.9438324
vn 0.7472315431 0.5430131555 -0.383121103
v 0.2221362889 -3.512059266e-07 20.63947296
vn -0.7989512682 -0.5381456614 -0.2684699595
v 0.4951549172 25 19.9438324
vn -0.7654274702 0.5430136323 -0.3453359902
v 69.05989838 -3.512059266e-07 20.63947296
vn 0.8113595247 -0.5381451845 -0.2282444686
v 69.05989838 25 20.63947296
vn 0.7989513874 0.5381457806 -0.2684693933
v 0.05584575236 -3.512059266e-07 21.36803818
vn -0.5064841509 -0.8576096296 -0.08932806551
v 0.2221362889 25 20.63947296
vn -0.8113595247 0.5381451845 -0.2282443345
v 69.22618866 -3.512059266e-07 21.36803818
vn 0.5103123784 -0.8576096296 -0.06392952055
v 69.22618866 25 21.36803818
vn 0.8373513818 0.5263384581 -0.147683844
v 20.90441704 -3.512059266e-07 33.20106888
vn 0.7337036133 -0.5846024752 0.3462931216
v -4.54207111e-07 -3.512059266e-07 22.11325073
vn -0.7436823249 -0.6685291529 -0.002325595589
v 0.05584575236 25 21.36803818
vn -0.5103126168 0.85760957 -0.06392875314
v 69.28203583 -3.512059266e-07 22.11325073
vn 0.8972108364 -0.4416018128 -0.0007241038838
v 48.37761688 -3.512059266e-07 33.20106888
vn -0.7517001033 -0.5846027732 0.3052648008
v 69.28203583 25 22.11325073
vn 0.7194266319 0.6945647597 -0.002249798737
v 19.6922493 -3.512059266e-07 37.98780823
vn 0.230390206 -0.9727638364 0.02551257797
v -4.54207111e-07 -3.512059266e-07 56.33974457
vn -0.897210896 -0.441601783 0.0007240864797
v 20.10001183 -3.512059266e-07 35.54421616
vn 0.8224678636 -0.5190701485 0.2326216996
v -4.54207111e-07 25 22.11325073
vn -0.897210896 0.4416017532 -0.000724086538
v 49.58978271 -3.512059266e-07 40.46518707
vn -0.2303901464 -0.9727638364 -0.02551269159
v 49.58978271 -3.512059266e-07 37.98780823
vn -0.8718972206 -0.4873252511 0.04805513471
v 69.28203583 -3.512059266e-07 56.33974457
vn 0.7436822057 -0.6685292125 0.002325651236
v 49.18201828 -3.512059266e-07 35.54421616
vn -0.8340545297 -0.5190700889 0.1868669838
v 69.28203583 25 56.33974457
vn 0.8972108364 0.4416018426 0.0007241038838
v 37.10993576 25 24.43107796
vn -0.1116920412 0.5815618634 0.805798173
v 34.64101791 25 24.22649956
vn 0.01838514954 0.7460515499 0.6656343341
v 32.17209625 25 24.43107796
vn 0.1560017318 0.581561625 0.7984043956
v 39.51150894 25 25.03923988
vn -0.2566183507 0.510626018 0.8206144571
v 29.77052498 25 25.03923988
vn 0.3015245199 0.5106258988 0.8051981926
v 41.78022766 25 26.03439331
vn -0.1047830954 0.9726952314 0.207085669
v 27.50180435 25 26.03439331
vn 0.4407705963 0.4722664058 0.7633385062
v 43.85420609 25 27.38939095
vn -0.5128258467 0.5000756383 0.6978065968
v 25.42782593 25 27.38939095
vn 0.1470060498 0.972900033 0.1784791499
v 45.67687607 25 29.067276
vn -0.5854497552 0.5768938065 0.5695982575
v 23.60515785 25 29.067276
vn 0.6416271925 0.5254850388 0.5587307811
v 47.19851303 25 31.02227592
vn -0.5243402123 0.7699695826 0.3636127114
v 22.08351898 25 31.02227592
vn 0.5441105366 0.7694843411 0.3344213068
v 48.37761688 25 33.20106888
vn -0.765483439 0.5324498415 0.361292541
v 20.90441704 25 33.20106888
vn 0.7516999245 0.584602654 0.3052653968
v 49.18201828 25 35.54421616
vn -0.8224679828 0.5190702081 0.2326210737
v 20.10001183 25 35.54421616
vn 0.8340545297 0.5190700889 0.1868669838
v 49.58978271 25 37.98780823
vn -0.2303901464 0.9727638364 0.02551269159
v 19.6922493 -3.512059266e-07 40.46518707
vn 0.8718973398 -0.4873250723 -0.04805491492
v 19.6922493 25 37.98780823
vn 0.8718973398 0.4873250723 0.04805491492
v 49.58978271 25 40.46518707
vn -0.8718972206 0.4873252511 -0.04805513471
v 20.10001183 -3.512059266e-07 42.90877914
vn 0.8340545297 -0.5190701485 -0.1868668795
v 19.6922493 25 40.46518707
vn 0.230390206 0.9727638364 -0.02551257797
v 49.18201828 -3.512059266e-07 42.90877914
vn -0.822468102 -0.5190700889 -0.2326208651
v 49.18201828 25 42.90877914
vn -0.8340545297 0.5190701485 -0.1868668795
v 20.90441704 -3.512059266e-07 45.25193024
vn 0.7517001629 -0.5846024752 -0.305265218
v 20.10001183 25 42.90877914
vn 0.8224679828 0.5190700293 -0.232621491
v 48.37761688 -3.512059266e-07 45.25193024
vn -0.6060726047 -0.7421920896 -0.286053896
v 48.37761688 25 45.25193024
vn -0.5929138064 0.7684252858 -0.240781635
v 0.05584575236 -3.512059266e-07 57.08495712
vn -0.5103127956 -0.8576094508 0.06392878294
v 22.08351898 -3.512059266e-07 47.43072128
vn 0.5441102982 -0.76948452 -0.334421277
v 20.90441704 25 45.25193024
vn 0.7654833198 0.5324499607 -0.3612924814
v 67.94728851 -3.512059266e-07 59.74061203
vn 0.3625124991 -0.8622890115 0.3536132574
v 47.19851303 -3.512059266e-07 47.43072128
vn -0.6623752713 -0.5918361545 -0.459335357
v 69.22618866 -3.512059266e-07 57.08495712
vn 0.8457267284 -0.5123448968 0.149161011
v 69.05989838 -3.512059266e-07 57.81352234
vn 0.8036259413 -0.5303434134 0.2700392008
v 68.78688049 -3.512059266e-07 58.50916672
vn 0.7482932806 -0.5411630273 0.3836662173
v 68.4132309 -3.512059266e-07 59.15634537
vn 0.6807071567 -0.5450539589 0.4894424677
v 47.19851303 25 47.43072128
vn -0.690315187 0.5860458016 -0.4242820144
v 1.334741235 -3.512059266e-07 59.74061203
vn -0.6347856522 -0.5322358012 0.5601537228
v 0.8688037395 -3.512059266e-07 59.15634537
vn -0.7064665556 -0.5410600901 0.4562444687
v 23.60515785 -3.512059266e-07 49.38572311
vn 0.6416273117 -0.5254849195 -0.5587306619
v 2.500001907 -3.512059266e-07 60.6698761
vn -0.3727635443 -0.6709367037 0.6410080194
v 1.88255012 -3.512059266e-07 60.24890518
vn -0.5505015254 -0.5163372159 0.6560060382
v 0.4951549172 -3.512059266e-07 58.50916672
vn -0.7654280663 -0.5430130959 0.3453356028
v 0.2221362889 -3.512059266e-07 57.81352234
vn -0.8113594651 -0.5381454825 0.2282439172
v 22.08351898 25 47.43072128
vn 0.5243402719 0.769969523 -0.3636128008
v 67.39948273 -3.512059266e-07 60.24890518
vn 0.3132069111 -0.854925096 0.4135269821
v 45.67687607 -3.512059266e-07 49.38572311
vn -0.5854495764 -0.5768938661 -0.5695983171
v 45.67687607 25 49.38572311
vn -0.6416274309 0.5254849792 -0.5587305427
v 25.42782593 -3.512059266e-07 51.06360626
vn 0.147006005 -0.972900033 -0.1784791797
v 23.60515785 25 49.38572311
vn 0.5854496956 0.5768939257 -0.5695981979
v 66.7820282 -3.512059266e-07 60.6698761
vn 0.4549318552 -0.4176802337 0.7864987254
v 43.85420609 -3.512059266e-07 51.06360626
vn -0.5128260255 -0.5000755787 -0.6978064775
v 43.85420609 25 51.06360626
vn -0.1470060199 0.9728999734 -0.1784793139
v 27.50180435 -3.512059266e-07 52.4186058
vn 0.4407708049 -0.4722662866 -0.7633385062
v 32.14101791 -3.512059266e-07 77.7831192
vn -0.4481859505 -0.4407556355 0.7777299285
v 25.42782593 25 51.06360626
vn 0.5128260851 0.5000756383 -0.6978064179
v 41.78022766 -3.512059266e-07 52.4186058
vn -0.1047830433 -0.9726952314 -0.2070856839
v 41.78022766 25 52.4186058
vn -0.4407709241 0.472266227 -0.7633384466
v 29.77052498 -3.512059266e-07 53.41375732
vn 0.3015241325 -0.5106258988 -0.8051983714
v 27.50180435 25 52.4186058
vn 0.1047830284 0.9726952314 -0.2070857733
v 37.14101791 -3.512059266e-07 77.7831192
vn 0.3706989288 -0.6665735841 0.6467317939
v 39.51150894 -3.512059266e-07 53.41375732
vn -0.2566181421 -0.5106259584 -0.8206145763
v 39.51150894 25 53.41375732
vn -0.3015241921 0.510626018 -0.8051982522
v 32.17209625 -3.512059266e-07 54.02191925
vn 0.1560017318 -0.5815615654 -0.7984043956
v 29.77052498 25 53.41375732
vn 0.2566182017 0.5106260777 -0.8206144571
v 37.10993576 -3.512059266e-07 54.02191925
vn -0.1116920486 -0.5815618038 -0.8057982326
v 37.10993576 25 54.02191925
vn -0.1560017169 0.5815616846 -0.798404336
v 32.81431198 -3.512059266e-07 78.10736084
vn -0.2004739642 -0.856556356 0.4755222201
v 34.64101791 -3.512059266e-07 54.22649765
vn 0.01838514954 -0.7460514903 -0.6656343937
v 32.17209625 25 54.02191925
vn 0.1164340526 0.5299306512 -0.8400098681
v 36.46772003 -3.512059266e-07 78.10736084
vn 0.1764828116 -0.8565558195 0.4849390984
v 34.64101791 25 54.22649765
vn -0.0176164452 0.769998014 -0.6378030777
v 35.75362015 -3.512059266e-07 78.32763672
vn 0.1673931479 -0.534843564 0.8282040358
v 35.01466751 -3.512059266e-07 78.43901825
vn 0.04186573625 -0.5416778326 0.839542985
v 34.2673645 -3.512059266e-07 78.43901825
vn -0.0837315619 -0.541678369 0.836405158
v 33.52841187 -3.512059266e-07 78.32763672
vn -0.2085364759 -0.5348432064 0.818813324
v -4.54207111e-07 25 56.33974457
vn -0.7194266915 0.6945647001 0.002249744954
v 69.22618866 25 57.08495712
vn 0.8521193266 0.5123447776 0.1067494825
v 0.05584575236 25 57.08495712
vn -0.8373516798 0.5263382792 0.1476828009
v 69.05989838 25 57.81352234
vn 0.816106081 0.530343473 0.2295793295
v 0.2221362889 25 57.81352234
vn -0.798951745 0.5381453633 0.2684691548
v 68.78688049 25 58.50916672
vn 0.7665167451 0.5411623716 0.3458256125
v 0.4951549172 25 58.50916672
vn -0.7472304702 0.5430137515 0.3831222951
v 68.4132309 25 59.15634537
vn 0.7042950392 0.545055747 0.4548436105
v 0.8688037395 25 59.15634537
vn -0.6828067303 0.541058898 0.4909483194
v 67.94728851 25 59.74061203
vn 0.6300663948 0.5421147346 0.5559927225
v 1.334741235 25 59.74061203
vn -0.6060260534 0.5322369337 0.5911482573
v 67.39948273 25 60.24890518
vn 0.3300766349 0.8581002951 0.3933360875
v 1.88255012 25 60.24890518
vn -0.3132069409 0.8549253941 0.4135262966
v 66.7820282 25 60.6698761
vn 0.3727635741 0.6709366441 0.6410080194
v 2.500001907 25 60.6698761
vn -0.4549318254 0.4176802039 0.7864987254
v 37.14101791 25 77.7831192
vn 0.4481859803 0.4407556653 0.7777298689
v 32.14101791 25 77.7831192
vn -0.3586215377 0.6927760839 0.6256611943
v 36.46772003 25 78.10736084
vn 0.2004737854 0.8565556407 0.475523591
v 32.81431198 25 78.10736084
vn -0.2919013798 0.5210124254 0.8020845652
v 35.75362015 25 78.32763672
vn 0.2085364759 0.5348432064 0.818813324
v 33.52841187 25 78.32763672
vn -0.167393133 0.534843564 0.8282040358
v 35.01466751 25 78.43901825
vn 0.0837315619 0.541678369 0.836405158
v 34.2673645 25 78.43901825
vn -0.04186573625 0.5416778326 0.839542985
# mm_gid 0
g mmGroup0
f 1//1 2//2 3//3 
f 2//2 4//4 3//3 
f 5//5 6//6 7//7 
f 6//6 8//8 7//7 
f 9//9 5//5 7//7 
f 10//10 9//9 7//7 
f 8//8 10//10 7//7 
f 11//11 6//6 5//5 
f 12//12 11//11 5//5 
f 9//9 12//12 5//5 
f 6//6 13//13 8//8 
f 14//14 10//10 8//8 
f 13//13 14//14 8//8 
f 15//15 6//6 11//11 
f 16//16 15//15 11//11 
f 12//12 16//16 11//11 
f 17//17 18//18 13//13 
f 6//6 17//17 13//13 
f 19//19 14//14 13//13 
f 18//18 19//19 13//13 
f 3//3 20//20 15//15 
f 20//20 6//6 15//15 
f 1//1 3//3 15//15 
f 16//16 1//1 15//15 
f 21//21 22//22 18//18 
f 22//22 23//23 18//18 
f 17//17 21//21 18//18 
f 24//24 19//19 18//18 
f 23//23 24//24 18//18 
f 4//4 25//25 3//3 
f 25//25 26//26 3//3 
f 26//26 27//27 3//3 
f 27//27 20//20 3//3 
f 28//28 29//29 23//23 
f 30//30 28//28 23//23 
f 22//22 30//30 23//23 
f 31//31 24//24 23//23 
f 29//29 31//31 23//23 
f 32//32 33//33 4//4 
f 33//33 34//34 4//4 
f 34//34 25//25 4//4 
f 35//35 32//32 4//4 
f 2//2 35//35 4//4 
f 28//28 36//36 29//29 
f 36//36 37//37 29//29 
f 38//38 31//31 29//29 
f 37//37 38//38 29//29 
f 39//39 33//33 32//32 
f 40//40 39//39 32//32 
f 35//35 40//40 32//32 
f 36//36 41//41 37//37 
f 42//42 38//38 37//37 
f 41//41 42//42 37//37 
f 43//43 33//33 39//39 
f 44//44 43//43 39//39 
f 40//40 44//44 39//39 
f 36//36 45//45 41//41 
f 46//46 42//42 41//41 
f 45//45 46//46 41//41 
f 47//47 33//33 43//43 
f 48//48 47//47 43//43 
f 44//44 48//48 43//43 
f 36//36 49//49 45//45 
f 50//50 46//46 45//45 
f 49//49 50//50 45//45 
f 51//51 33//33 47//47 
f 52//52 51//51 47//47 
f 48//48 52//52 47//47 
f 36//36 53//53 49//49 
f 54//54 50//50 49//49 
f 53//53 54//54 49//49 
f 55//55 33//33 51//51 
f 56//56 55//55 51//51 
f 52//52 56//56 51//51 
f 57//57 58//58 53//53 
f 36//36 57//57 53//53 
f 59//59 54//54 53//53 
f 58//58 59//59 53//53 
f 60//60 61//61 55//55 
f 61//61 33//33 55//55 
f 62//62 60//60 55//55 
f 56//56 62//62 55//55 
f 63//63 64//64 58//58 
f 65//65 63//63 58//58 
f 57//57 65//65 58//58 
f 66//66 59//59 58//58 
f 64//64 66//66 58//58 
f 67//67 68//68 60//60 
f 69//69 67//67 60//60 
f 68//68 70//70 60//60 
f 70//70 61//61 60//60 
f 62//62 71//71 60//60 
f 71//71 69//69 60//60 
f 72//72 73//73 6//6 
f 20//20 72//72 6//6 
f 73//73 17//17 6//6 
f 74//74 21//21 17//17 
f 73//73 74//74 17//17 
f 75//75 72//72 20//20 
f 27//27 75//75 20//20 
f 76//76 22//22 21//21 
f 74//74 76//76 21//21 
f 77//77 75//75 27//27 
f 26//26 77//77 27//27 
f 78//78 30//30 22//22 
f 76//76 78//78 22//22 
f 79//79 77//77 26//26 
f 25//25 79//79 26//26 
f 80//80 28//28 30//30 
f 78//78 80//80 30//30 
f 81//81 79//79 25//25 
f 34//34 81//81 25//25 
f 82//82 36//36 28//28 
f 80//80 82//82 28//28 
f 83//83 81//81 34//34 
f 33//33 83//83 34//34 
f 84//84 57//57 36//36 
f 82//82 84//84 36//36 
f 85//85 83//83 33//33 
f 61//61 85//85 33//33 
f 86//86 65//65 57//57 
f 84//84 86//86 57//57 
f 87//87 85//85 61//61 
f 70//70 87//87 61//61 
f 88//88 63//63 65//65 
f 86//86 88//88 65//65 
f 89//89 87//87 70//70 
f 68//68 89//89 70//70 
f 90//90 64//64 63//63 
f 91//91 90//90 63//63 
f 88//88 91//91 63//63 
f 92//92 89//89 68//68 
f 67//67 92//92 68//68 
f 93//93 64//64 90//90 
f 94//94 93//93 90//90 
f 91//91 94//94 90//90 
f 69//69 95//95 67//67 
f 96//96 92//92 67//67 
f 95//95 96//96 67//67 
f 97//97 64//64 93//93 
f 98//98 97//97 93//93 
f 94//94 98//98 93//93 
f 69//69 99//99 95//95 
f 100//100 96//96 95//95 
f 99//99 100//100 95//95 
f 101//101 64//64 97//97 
f 102//102 101//101 97//97 
f 103//103 102//102 97//97 
f 98//98 103//103 97//97 
f 104//104 105//105 99//99 
f 69//69 106//106 99//99 
f 106//106 107//107 99//99 
f 107//107 108//108 99//99 
f 108//108 109//109 99//99 
f 109//109 104//104 99//99 
f 110//110 100//100 99//99 
f 105//105 110//110 99//99 
f 111//111 112//112 102//102 
f 113//113 114//114 102//102 
f 114//114 115//115 102//102 
f 115//115 111//111 102//102 
f 112//112 116//116 102//102 
f 116//116 117//117 102//102 
f 117//117 101//101 102//102 
f 118//118 113//113 102//102 
f 103//103 118//118 102//102 
f 119//119 120//120 105//105 
f 104//104 119//119 105//105 
f 121//121 110//110 105//105 
f 120//120 121//121 105//105 
f 122//122 114//114 113//113 
f 123//123 122//122 113//113 
f 118//118 123//123 113//113 
f 124//124 125//125 120//120 
f 119//119 124//124 120//120 
f 126//126 121//121 120//120 
f 125//125 126//126 120//120 
f 127//127 128//128 122//122 
f 128//128 114//114 122//122 
f 129//129 127//127 122//122 
f 123//123 129//129 122//122 
f 124//124 130//130 125//125 
f 131//131 126//126 125//125 
f 130//130 131//131 125//125 
f 132//132 128//128 127//127 
f 133//133 132//132 127//127 
f 129//129 133//133 127//127 
f 124//124 134//134 130//130 
f 134//134 135//135 130//130 
f 136//136 131//131 130//130 
f 135//135 136//136 130//130 
f 137//137 128//128 132//132 
f 138//138 137//137 132//132 
f 133//133 138//138 132//132 
f 134//134 139//139 135//135 
f 140//140 136//136 135//135 
f 139//139 140//140 135//135 
f 141//141 128//128 137//137 
f 142//142 141//141 137//137 
f 143//143 142//142 137//137 
f 138//138 143//143 137//137 
f 144//144 142//142 139//139 
f 134//134 144//144 139//139 
f 145//145 140//140 139//139 
f 142//142 145//145 139//139 
f 143//143 145//145 142//142 
f 146//146 147//147 142//142 
f 147//147 148//148 142//142 
f 149//149 141//141 142//142 
f 148//148 149//149 142//142 
f 144//144 146//146 142//142 
f 150//150 66//66 64//64 
f 101//101 150//150 64//64 
f 151//151 106//106 69//69 
f 71//71 151//151 69//69 
f 152//152 150//150 101//101 
f 117//117 152//152 101//101 
f 153//153 107//107 106//106 
f 151//151 153//153 106//106 
f 154//154 152//152 117//117 
f 116//116 154//154 117//117 
f 155//155 108//108 107//107 
f 153//153 155//155 107//107 
f 156//156 154//154 116//116 
f 112//112 156//156 116//116 
f 157//157 109//109 108//108 
f 155//155 157//157 108//108 
f 158//158 156//156 112//112 
f 111//111 158//158 112//112 
f 159//159 104//104 109//109 
f 157//157 159//159 109//109 
f 160//160 158//158 111//111 
f 115//115 160//160 111//111 
f 161//161 119//119 104//104 
f 159//159 161//161 104//104 
f 162//162 160//160 115//115 
f 114//114 162//162 115//115 
f 163//163 124//124 119//119 
f 161//161 163//163 119//119 
f 164//164 162//162 114//114 
f 128//128 164//164 114//114 
f 163//163 165//165 124//124 
f 165//165 134//134 124//124 
f 166//166 164//164 128//128 
f 141//141 166//166 128//128 
f 167//167 144//144 134//134 
f 165//165 167//167 134//134 
f 168//168 166//166 141//141 
f 149//149 168//168 141//141 
f 169//169 146//146 144//144 
f 167//167 169//169 144//144 
f 170//170 168//168 149//149 
f 148//148 170//170 149//149 
f 171//171 147//147 146//146 
f 169//169 171//171 146//146 
f 172//172 170//170 148//148 
f 147//147 172//172 148//148 
f 171//171 172//172 147//147 
f 73//73 9//9 10//10 
f 14//14 73//73 10//10 
f 73//73 12//12 9//9 
f 19//19 73//73 14//14 
f 73//73 16//16 12//12 
f 24//24 74//74 19//19 
f 74//74 73//73 19//19 
f 72//72 1//1 16//16 
f 73//73 72//72 16//16 
f 31//31 80//80 24//24 
f 80//80 78//78 24//24 
f 78//78 76//76 24//24 
f 76//76 74//74 24//24 
f 75//75 77//77 1//1 
f 77//77 2//2 1//1 
f 72//72 75//75 1//1 
f 84//84 82//82 31//31 
f 82//82 80//80 31//31 
f 38//38 84//84 31//31 
f 77//77 79//79 2//2 
f 79//79 81//81 2//2 
f 81//81 35//35 2//2 
f 42//42 84//84 38//38 
f 81//81 83//83 35//35 
f 83//83 40//40 35//35 
f 46//46 84//84 42//42 
f 83//83 44//44 40//40 
f 50//50 84//84 46//46 
f 83//83 48//48 44//44 
f 54//54 84//84 50//50 
f 83//83 52//52 48//48 
f 59//59 84//84 54//54 
f 83//83 56//56 52//52 
f 66//66 86//86 59//59 
f 86//86 84//84 59//59 
f 83//83 62//62 56//56 
f 94//94 91//91 66//66 
f 150//150 94//94 66//66 
f 91//91 88//88 66//66 
f 88//88 86//86 66//66 
f 85//85 87//87 62//62 
f 87//87 89//89 62//62 
f 89//89 71//71 62//62 
f 83//83 85//85 62//62 
f 92//92 71//71 89//89 
f 150//150 98//98 94//94 
f 96//96 71//71 92//92 
f 150//150 103//103 98//98 
f 100//100 71//71 96//96 
f 150//150 118//118 103//103 
f 151//151 71//71 100//100 
f 110//110 161//161 100//100 
f 161//161 159//159 100//100 
f 159//159 157//157 100//100 
f 157//157 155//155 100//100 
f 155//155 153//153 100//100 
f 153//153 151//151 100//100 
f 162//162 123//123 118//118 
f 160//160 162//162 118//118 
f 150//150 152//152 118//118 
f 152//152 154//154 118//118 
f 154//154 156//156 118//118 
f 156//156 158//158 118//118 
f 158//158 160//160 118//118 
f 121//121 163//163 110//110 
f 163//163 161//161 110//110 
f 164//164 129//129 123//123 
f 162//162 164//164 123//123 
f 126//126 163//163 121//121 
f 164//164 133//133 129//129 
f 131//131 165//165 126//126 
f 165//165 163//163 126//126 
f 166//166 138//138 133//133 
f 164//164 166//166 133//133 
f 136//136 165//165 131//131 
f 166//166 143//143 138//138 
f 140//140 165//165 136//136 
f 166//166 145//145 143//143 
f 167//167 165//165 140//140 
f 145//145 167//167 140//140 
f 172//172 171//171 145//145 
f 170//170 172//172 145//145 
f 166//166 168//168 145//145 
f 168//168 170//170 145//145 
f 169//169 167//167 145//145 
f 171//171 169//169 145//145 
